HIERARCHY
ROOT hip
{
	OFFSET 0.000000 0.000000 0.000000 
	CHANNELS 6 Xposition Yposition Zposition Xrotation Zrotation Yrotation
	JOINT abdomen
	{
		OFFSET 0.000000 3.402643 0.000000 
		CHANNELS 3 Xrotation Zrotation Yrotation
		JOINT chest
		{
			OFFSET 0.000000 8.438565 -0.680529 
			CHANNELS 3 Xrotation Zrotation Yrotation
			JOINT neck
			{
				OFFSET 0.000000 10.207942 -0.272212 
				CHANNELS 3 Xrotation Zrotation Yrotation
				JOINT head
				{
					OFFSET 0.000000 3.130431 0.000000 
					CHANNELS 3 Xrotation Zrotation Yrotation
					End Site
					{
						OFFSET 0.000000 3.130435 0.000000 
					}
				}
			}
			JOINT lCollar
			{
				OFFSET 3.470700 6.669187 -0.816635 
				CHANNELS 3 Yrotation Zrotation Xrotation
				JOINT lShldr
				{
					OFFSET 3.198488 0.000000 0.000000 
					CHANNELS 3 Zrotation Yrotation Xrotation
					JOINT lForeArm
					{
						OFFSET 10.139888 0.000000 0.000000 
						CHANNELS 3 Yrotation Zrotation Xrotation
						JOINT lHand
						{
							OFFSET 8.370511 0.000000 0.000000 
							CHANNELS 3 Zrotation Yrotation Xrotation
							End Site
							{
								OFFSET 4.083176 0.000000 0.000000 
							}
						}
					}
				}
			}
			JOINT rCollar
			{
				OFFSET -3.470700 6.669187 -0.816635 
				CHANNELS 3 Yrotation Zrotation Xrotation
				JOINT rShldr
				{
					OFFSET -3.198488 0.000000 0.000000 
					CHANNELS 3 Zrotation Yrotation Xrotation
					JOINT rForeArm
					{
						OFFSET -10.139888 0.000000 0.000000 
						CHANNELS 3 Yrotation Zrotation Xrotation
						JOINT rHand
						{
							OFFSET -8.370511 0.000000 0.000000 
							CHANNELS 3 Zrotation Yrotation Xrotation
							End Site
							{
								OFFSET -4.083176 0.000000 0.000000 
							}
						}
					}
				}
			}
		}
	}
	JOINT lThigh
	{
		OFFSET 5.308129 -1.633274 1.361059 
		CHANNELS 3 Xrotation Zrotation Yrotation
		JOINT lShin
		{
			OFFSET -2.041588 -20.007561 0.000000 
			CHANNELS 3 Xrotation Zrotation Yrotation
			JOINT lFoot
			{
				OFFSET 0.000000 -19.190928 -1.224953 
				CHANNELS 3 Xrotation Yrotation Zrotation
				End Site
				{
					OFFSET 0.000000 -2.449906 4.627600 
				}
			}
		}
	}
	JOINT rThigh
	{
		OFFSET -5.308129 -1.633274 1.361059 
		CHANNELS 3 Xrotation Zrotation Yrotation
		JOINT rShin
		{
			OFFSET 2.041588 -20.007561 0.000000 
			CHANNELS 3 Xrotation Zrotation Yrotation
			JOINT rFoot
			{
				OFFSET 0.000000 -19.190928 -1.224953 
				CHANNELS 3 Xrotation Yrotation Zrotation
				End Site
				{
					OFFSET 0.000000 -2.449906 4.627600 
				}
			}
		}
	}
}
MOTION
Frames: 19
Frame Time: 0.033333
0.340061 40.266430 0.340061 -18.339846 -0.009270 -0.006693 21.028458 1.433472 -3.738581 -35.517578 -0.009375 0.002511 -43.336304 -3.620232 -3.135081 10.524219 0.508720 -0.030344 -3.589126 -11.835632 17.516819 -56.759193 40.401299 -4.860072 -28.511995 -2.217170 2.288101 -38.815926 -50.520088 65.799850 -5.433805 11.790808 17.525330 57.980846 -38.163010 -4.767992 71.508492 3.052679 1.462913 38.805038 50.520535 65.806732 -19.689764 7.779925 3.005917 62.273869 1.001784 -4.510973 -23.749403 6.315218 -3.366172 -1.777923 -13.164347 -13.062722 62.682640 -1.067279 4.498216 -40.391548 -0.735876 5.392646 
0.340061 37.562481 0.340061 -21.748049 -0.009071 -0.006147 21.028458 1.433472 -3.738581 -32.714844 -0.009486 0.002052 -36.699760 -3.221312 -3.462750 10.524219 0.508720 -0.030344 -2.202431 -11.654005 24.293400 -58.516766 31.596954 -8.961789 -28.511995 -2.217170 2.288101 -38.815926 -50.520088 65.799850 -3.022521 13.409690 24.307543 60.658154 -24.312595 -12.519006 71.508492 3.052679 1.462913 38.805038 50.520535 65.806732 -27.301128 8.016601 2.525491 75.066803 1.916801 -4.664178 -25.656200 6.282874 -3.061829 -9.207798 -14.996604 -11.481467 78.263504 -2.167394 4.640268 -45.308079 -0.714405 4.819863 
0.340061 35.302708 0.340061 -25.244141 -0.008833 -0.005602 21.028458 1.433472 -3.738581 -29.863281 -0.009577 0.001575 -29.920715 -2.776642 -3.760088 10.524219 0.508720 -0.030344 -0.887703 -11.333045 25.000000 -57.198608 10.779506 -11.908492 -28.511995 -2.217170 2.288101 -38.815926 -50.520088 65.799850 -0.625657 16.025736 25.000000 59.485291 -9.478356 -19.722799 71.508492 3.052679 1.462913 38.805038 50.520535 65.806732 -33.005154 8.075596 2.195116 83.224472 2.500522 -4.654235 -24.728527 6.216768 -2.730655 -15.054565 -16.214458 -10.106613 89.202400 -2.929217 4.561550 -47.125801 -0.564225 4.165928 
0.340061 33.192844 0.340061 -28.818357 -0.008556 -0.005060 21.028458 1.433472 -3.738581 -26.953125 -0.009644 0.001089 -22.941244 -2.282784 -4.004040 10.524219 0.508720 -0.030344 0.417499 -10.854124 25.000000 -53.491142 -11.805959 -15.873522 -28.511995 -2.217170 2.288101 -38.815926 -50.520088 65.799850 0.713391 19.100784 25.000000 55.068283 4.205279 -26.976166 71.508492 3.052679 1.462913 38.805038 50.520535 65.806732 -37.019924 8.056520 2.007581 88.391716 2.870743 -4.607572 -22.369003 6.134508 -2.360486 -19.579000 -17.078825 -8.967687 96.976868 -3.495769 4.411610 -47.034851 -0.348110 3.525365 
0.340061 30.794264 0.340061 -32.841797 -0.008205 -0.004471 21.028458 1.433472 -3.738581 -23.720703 -0.009690 0.000542 -15.329890 -1.721630 -4.213657 10.524219 0.508720 -0.030344 1.772941 -10.156892 25.000000 -46.457523 -32.913128 -23.149500 -28.511995 -2.217170 2.288101 -38.815926 -50.520088 65.799850 0.605018 22.299635 25.000000 47.548222 16.842646 -35.520195 71.508492 3.052679 1.462913 38.805038 50.520535 65.806732 -39.309025 7.986764 1.931364 92.068596 3.134279 -4.548602 -19.782059 6.109540 -2.002875 -22.488701 -17.810976 -7.993830 102.882278 -3.895776 4.271036 -46.226982 -0.096513 2.922729 
0.340061 27.085398 0.340061 -34.990234 -0.008000 -0.004167 21.028458 1.433472 -3.738581 -22.080078 -0.009702 0.000264 -11.373492 -1.414875 -4.292714 10.524219 0.508720 -0.030344 2.419048 -9.738626 25.000000 -37.657608 -46.350269 -31.114786 -28.511995 -2.217170 2.288101 -38.815926 -50.520088 65.799850 1.067567 25.000000 25.000000 40.436031 23.213959 -42.465763 71.508492 3.052679 1.462913 38.805038 50.520535 65.806732 -54.905022 11.902934 0.758663 87.329086 2.792977 -4.616198 -12.419253 2.111150 -2.008600 -36.282066 -13.257194 -13.872947 104.415810 -3.993503 4.219981 -34.719231 -1.887824 2.404883 
0.340061 21.549713 0.340061 -42.792969 -0.007166 -0.003131 21.028458 1.433472 -3.738581 -15.361328 0.000059 -0.009749 7.952992 0.101109 -4.344027 10.524219 0.508720 -0.030344 -1.274813 -11.507137 25.000000 -22.057386 -57.348495 -45.933254 -28.511995 -2.217170 2.288101 -38.815926 -50.520088 65.799850 12.184241 23.292051 25.000000 31.581860 29.036425 -50.916634 71.508492 3.052679 1.462913 38.805038 50.520535 65.806732 -70.773811 15.418321 -1.508292 82.405075 2.451825 -4.663533 -5.334342 -1.915748 -2.744075 -50.130878 -10.065341 -20.554537 105.471046 -4.042758 4.193241 -23.814190 -5.930991 2.495960 
0.340061 13.826584 0.340061 -50.507816 -0.006211 -0.002229 21.028458 1.433472 -3.738581 -9.033202 0.000057 -0.009743 27.957348 1.603672 -3.875377 10.524219 0.508720 -0.030344 -5.515293 -11.917991 9.934244 1.821746 -63.730747 -68.963272 -28.511995 -2.217170 2.288101 -38.815926 -50.520088 65.799850 22.085123 16.861528 8.672730 21.526133 32.789444 -60.120205 71.508492 3.052679 1.462913 38.805038 50.520535 65.806732 -83.623512 17.596258 -3.906365 77.999588 2.130220 -4.680484 0.596050 -4.910706 -3.719401 -61.375084 -9.061802 -27.011742 106.253059 -4.110875 4.138799 -15.178545 -10.407724 3.287151 
0.340061 5.514740 0.340061 -56.347656 -0.005412 -0.011402 21.028458 1.433472 -3.738581 -4.384764 0.000055 -0.009738 43.658295 2.605474 -3.155275 10.524219 0.508720 -0.030344 -8.794971 -11.192656 -6.107333 26.009109 -64.553223 -92.208565 -28.511995 -2.217170 2.288101 -38.815926 -50.520088 65.799850 28.386173 9.195218 -5.420005 12.459832 33.840714 -68.111137 71.508492 3.052679 1.462913 38.805038 50.520535 65.806732 -94.640404 18.836843 -6.139602 73.341530 1.798908 -4.664056 6.432840 -7.211976 -4.674699 -71.205452 -9.975789 -33.851475 106.945473 -4.159498 4.144893 -7.331370 -15.230680 4.702124 
0.340061 -0.614916 0.340061 -60.468750 -0.004813 -0.011034 21.028458 1.433472 -3.738581 -2.089844 0.000053 -0.009736 56.031082 3.233720 -2.412856 10.524219 0.508720 -0.030344 -11.147571 -10.003751 -18.640106 37.168213 -63.361603 -102.897438 -28.511995 -2.217170 2.288101 -38.815926 -50.520088 65.799850 32.058434 1.721028 -15.346422 7.487932 32.736408 -72.542793 71.508492 3.052679 1.462913 38.805038 50.520535 65.806732 -101.554802 18.944456 -7.096507 67.767563 1.409289 -4.620852 12.671289 -8.283313 -4.818214 -78.152794 -13.669958 -41.698692 107.610229 -4.198648 4.114476 0.088586 -19.574993 6.873780 
0.340061 -4.123920 0.340061 -62.207035 -0.009107 -0.002253 18.107012 1.239051 -3.803735 -6.357421 0.000055 -0.009740 56.574127 3.253022 -2.370692 10.524219 0.508720 -0.030344 -13.401529 -8.058071 -25.000000 -4.015351 -64.008926 -61.012688 -29.180191 -2.237958 2.274110 -38.815926 -50.520088 65.799850 31.566050 -6.784133 -25.000000 23.394484 25.901087 -59.430916 68.189659 3.015084 1.550504 38.805038 50.520535 65.806732 -94.052155 16.336220 -3.378513 60.314449 0.879711 -4.484282 19.122698 -5.635917 -1.666731 -74.432976 -21.522421 -52.493042 107.619698 -4.218263 4.107635 6.650785 -19.965691 8.760045 
0.340061 -5.872875 0.340061 -62.402344 -0.009048 -0.002224 13.437220 0.922491 -3.894745 -15.976563 0.000059 -0.009750 40.672264 2.426459 -3.307438 10.524219 0.508720 -0.030344 -14.175294 -7.114280 -25.000000 -45.346157 -37.384644 -18.276836 -30.230024 -2.263080 2.268976 -38.815926 -50.520088 65.799850 30.850864 -10.211394 -25.000000 46.746582 5.153599 -43.244247 62.736687 2.939331 1.677625 38.805038 50.520535 65.806732 -72.346771 8.953821 3.050817 51.203075 0.259558 -4.230130 24.744398 1.957554 3.460765 -56.300026 -29.644650 -69.200523 107.630356 -4.211214 4.089127 11.793533 -15.789932 8.571740 
0.340061 -6.139517 0.340061 -62.011719 -0.009166 -0.002286 8.064760 0.560491 -3.965439 -24.580076 -0.009681 0.000687 15.125623 0.666424 -4.240521 10.524219 0.508720 -0.030344 -13.507270 -7.947288 -25.000000 -55.032505 3.465480 -5.226668 -31.629284 -2.298828 2.251218 -38.815926 -50.520088 65.799850 31.487360 -7.184290 -25.000000 65.881165 -23.007944 -36.973694 55.325180 2.809926 1.846252 38.805038 50.520535 65.806732 -51.670605 0.712067 5.888549 43.852058 -0.195303 -3.951710 26.674522 9.626844 6.175665 -34.217041 -31.849291 -85.395020 107.611191 -4.210902 4.079332 15.403371 -9.490573 6.669833 
0.340061 -2.463797 0.340061 -61.689457 -0.009263 -0.002336 -0.101318 -0.011663 -4.002747 -24.580076 -0.009681 0.000687 -13.371992 -1.565603 -4.259881 10.524219 0.508720 -0.030344 -11.622477 -9.670082 -21.500750 -53.871857 41.511734 1.887100 -33.209728 -2.336756 2.230505 -38.815926 -50.520088 65.799850 32.107822 0.020888 -17.623682 84.324638 -47.393497 -42.037960 46.879692 2.647031 2.011741 38.805038 50.520535 65.806732 -41.705151 -1.308363 5.569840 43.841949 -0.192641 -3.959918 16.467421 10.874409 6.998300 -17.475410 -31.590363 -88.975838 107.610840 -4.210870 4.088881 13.161457 5.156509 3.494885 
0.340061 0.889708 0.340061 -62.490234 -0.009021 -0.002210 -4.400088 -0.309801 -3.990412 -24.580076 -0.009681 0.000687 -31.810619 -2.904248 -3.691936 10.524219 0.508720 -0.030344 -9.850299 -10.753445 -11.479246 -45.047722 65.394318 12.066497 -34.501968 -2.366983 2.217227 -38.815926 -50.520088 65.799850 31.688229 5.915552 -9.627568 102.075882 -60.365677 -53.809467 40.011047 2.489299 2.130263 38.805038 50.520535 65.806732 -37.263550 -0.439311 4.898217 43.841934 -0.202292 -3.963583 12.208075 10.187665 6.118360 -7.341039 -31.942209 -86.535088 107.611191 -4.210922 4.079324 11.596445 16.492872 5.872501 
0.340061 -0.237407 0.340061 -66.181641 -0.007887 -0.001663 0.631334 0.040169 -4.003160 -21.455078 -0.009704 0.000158 -17.468620 -1.871236 -4.176367 10.524219 0.508720 -0.030344 -12.221944 -9.203116 -25.000000 -52.772358 49.186714 2.502630 -34.501968 -2.366983 2.217227 -38.815926 -50.520088 65.799850 32.056496 -2.117543 -20.516357 82.668533 -45.598083 -40.699615 40.011047 2.489299 2.130263 38.805038 50.520535 65.806732 -35.403507 -0.586467 4.768385 43.841969 -0.178712 -3.954635 10.344385 10.248806 6.133144 -5.453649 -31.806412 -87.891991 107.611191 -4.210914 4.079350 11.691165 17.681580 4.736091 
0.340061 -2.230692 0.340061 -72.099617 -0.006003 -0.000945 8.103813 0.560576 -3.966039 -17.841797 0.000059 -0.009752 4.076543 -0.199592 -4.374579 10.524219 0.508720 -0.030344 -14.713224 -6.301071 -25.000000 -54.980114 17.874557 -3.745497 -34.501968 -2.366983 2.217227 -38.815926 -50.520088 65.799850 30.058491 -12.928444 -25.000000 64.897453 -21.224897 -35.183979 40.011047 2.489299 2.130263 38.805038 50.520535 65.806732 -34.936951 -0.615606 4.718924 43.841969 -0.178712 -3.954635 9.881732 10.280818 6.122315 -6.620193 -31.698376 -89.334633 107.611359 -4.201653 4.082089 12.237041 15.809665 3.384449 
0.340061 -3.518713 0.340061 -76.464844 -0.006857 -0.000815 13.544660 0.932207 -3.893383 -15.585937 0.000059 -0.009750 -13.474442 -1.575725 -4.259990 10.524219 0.508720 -0.030344 -11.875336 -9.491691 -22.957949 -56.202717 22.816467 -7.814653 -32.258465 -2.311499 2.239199 -38.815926 -50.520088 65.799850 32.094772 -0.839417 -18.785059 69.977341 -24.995089 -40.505405 36.756092 2.412985 2.181344 38.805038 50.520535 65.806732 -34.285233 -0.644378 4.654300 43.841934 -0.202291 -3.963583 9.217413 10.295089 6.127088 -7.623534 -31.649830 -90.362259 107.611191 -4.210927 4.079367 12.614767 14.285432 2.420619 
0.340061 -3.474365 0.340061 -76.464844 -0.006857 -0.000815 13.544660 0.932207 -3.893383 -15.957031 0.000059 -0.009750 -35.513283 -3.143688 -3.524952 10.524219 0.508720 -0.030344 -7.210358 -11.685834 2.020707 -58.817005 38.838757 -9.515858 -30.009581 -2.258031 2.267524 -38.815926 -50.520088 65.799850 29.813305 13.610722 1.370417 83.408669 -37.352119 -47.874237 33.508286 2.338416 2.218596 38.805038 50.520535 65.806732 -32.726391 -0.761778 4.536516 40.302101 -0.399105 -3.786103 11.204181 10.216790 6.112967 -7.623534 -31.649830 -90.362259 107.611191 -4.210927 4.079367 12.614767 14.285432 2.420619 
